<?xml version="1.0" encoding="UTF-8"?>
<svg xmlns="http://www.w3.org/2000/svg" viewBox="0 0 850.89 850.9">
  <path d="M823.25,374.63l-239.07,239.07c-36.2,36.2-94.88,36.2-131.08.01l-6.72-6.72-19.42-19.42h0s-59.13-59.13-59.13-59.13h0s-15.69-15.7-15.69-15.7c-12.72-12.72-12.72-33.34,0-46.06l13.14-13.13c12.72-12.72,33.34-12.72,46.06,0l11.17,11.17,4.52,4.51,59.13,59.13,4.27,4.28c15.61,15.61,40.92,15.62,56.53,0l195.22-195.22c15.62-15.61,15.62-40.92,0-56.54l-90.07-90.07c-15.61-15.61-40.93-15.61-56.54,0l-66.75,66.75c-12.72,12.72-33.34,12.72-46.06,0l-13.08-13.08c-12.72-12.72-12.72-33.34,0-46.06l88.68-88.67c36.2-36.2,94.88-36.19,131.08,0l133.81,133.81c36.19,36.2,36.19,94.87,0,131.07Z"/>
  <path d="M498.24,384.7l-13.13,13.13c-12.72,12.72-33.34,12.72-46.06,0l-79.09-79.09c-15.61-15.61-40.92-15.61-56.54,0l-21.2,21.2-61.01,61.01-113.01,113.01c-15.61,15.61-15.6,40.92.01,56.53l90.07,90.08c15.62,15.61,40.92,15.62,56.54.01l66.75-66.75c12.72-12.72,33.34-12.72,46.06,0l13.07,13.07c12.72,12.72,12.72,33.34,0,46.06l-88.67,88.67c-36.2,36.2-94.88,36.21-131.08.01L27.15,607.83c-36.2-36.2-36.2-94.89,0-131.08l239.07-239.07c36.19-36.2,94.88-36.19,131.07,0l100.95,100.95c12.72,12.72,12.72,33.34,0,46.06Z"/>
</svg>