
<?xml version="1.0" encoding="UTF-8"?>
<svg xmlns="http://www.w3.org/2000/svg" viewBox="0 0 850.91 850.91"><path d="M838.33,779.56c11.76,11.76,11.76,30.84,0,42.6l-16.65,16.65c-11.76,11.76-30.84,11.76-42.6,0l-342.55-342.55c-6.24-6.24-16.37-6.24-22.61,0L71.36,838.81c-11.77,11.76-30.84,11.76-42.61,0l-16.64-16.65c-11.77-11.76-11.77-30.84,0-42.6l342.55-342.55c6.24-6.24,6.24-16.37,0-22.61L12.11,71.84C.34,60.07.34,41,12.11,29.23L28.75,12.59c11.77-11.77,30.84-11.77,42.61,0l342.55,342.55c6.24,6.24,16.37,6.24,22.61,0L779.08,12.59c11.76-11.77,30.84-11.77,42.6,0l16.65,16.64c11.76,11.77,11.76,30.84,0,42.61l-342.55,342.55c-6.24,6.24-6.24,16.37,0,22.61l342.55,342.55Z"/></svg>